<svg width="136" height="41" viewBox="0 0 136 41" fill="none" xmlns="http://www.w3.org/2000/svg">
<g id="app-store.svg" clip-path="url(#clip0_1505_4139)">
<g id="Group">
<path id="Vector" d="M124.749 0.703255H11.2566C10.8429 0.703255 10.4342 0.703255 10.0216 0.705255C9.67621 0.707255 9.33358 0.713065 8.98488 0.717955C8.22733 0.725857 7.47157 0.784931 6.72416 0.894665C5.9778 1.00679 5.25482 1.21817 4.57967 1.52167C3.90534 1.82772 3.2892 2.22542 2.75357 2.70032C2.21514 3.17389 1.76632 3.72127 1.42436 4.32141C1.08145 4.92036 0.843683 5.56219 0.719258 6.22473C0.593649 6.88644 0.526059 7.55577 0.517092 8.22673C0.506622 8.53333 0.505517 8.84095 0.5 9.14759V32.2618C0.505517 32.5723 0.506622 32.8731 0.517092 33.1837C0.526061 33.8547 0.593652 34.524 0.719258 35.1856C0.843339 35.8486 1.08112 36.4908 1.42436 37.0899C1.76616 37.6881 2.21505 38.2333 2.75357 38.7042C3.28717 39.1813 3.90371 39.5792 4.57967 39.8829C5.25481 40.1872 5.97772 40.3999 6.72416 40.5137C7.4717 40.6226 8.22738 40.6817 8.98488 40.6905C9.33358 40.6973 9.67621 40.7012 10.0216 40.7012C10.4342 40.7032 10.843 40.7032 11.2566 40.7032H124.749C125.155 40.7032 125.567 40.7032 125.972 40.7012C126.316 40.7012 126.669 40.6973 127.012 40.6905C127.768 40.6822 128.523 40.6231 129.269 40.5137C130.018 40.3991 130.743 40.1865 131.421 39.8829C132.097 39.579 132.713 39.1811 133.246 38.7042C133.783 38.2315 134.233 37.6867 134.579 37.0899C134.92 36.4903 135.155 35.8482 135.277 35.1856C135.403 34.5239 135.473 33.8547 135.487 33.1837C135.491 32.8731 135.491 32.5723 135.491 32.2618C135.5 31.8985 135.5 31.5372 135.5 31.168V10.2394C135.5 9.87317 135.5 9.50989 135.491 9.14759C135.491 8.84095 135.491 8.53333 135.487 8.22669C135.473 7.55567 135.403 6.88649 135.277 6.22469C135.155 5.56253 134.919 4.92075 134.579 4.32137C133.883 3.11845 132.778 2.13928 131.421 1.52158C130.743 1.21882 130.018 1.0075 129.269 0.894575C128.523 0.784358 127.769 0.725263 127.012 0.717815C126.669 0.712935 126.316 0.707075 125.972 0.705125C125.567 0.703125 125.155 0.703125 124.749 0.703125V0.703255Z" fill="#A6A6A6"/>
<path id="Vector_2" d="M9.93001 39.8322C9.58569 39.8322 9.24969 39.8283 8.90807 39.8215C8.20037 39.8134 7.49433 39.7588 6.79574 39.6584C6.14433 39.5591 5.5133 39.3744 4.92345 39.1104C4.339 38.8485 3.80594 38.5052 3.34469 38.0936C2.87676 37.6868 2.48718 37.2149 2.1914 36.6968C1.89236 36.1753 1.68541 35.6162 1.57775 35.0392C1.46149 34.4192 1.39859 33.7923 1.38959 33.1638C1.38243 32.9529 1.37305 32.2505 1.37305 32.2505V9.14514C1.37305 9.14514 1.38304 8.45359 1.38965 8.25041C1.39827 7.62297 1.4608 6.99701 1.57671 6.37795C1.68457 5.79935 1.89168 5.23873 2.19088 4.71551C2.48557 4.19771 2.87299 3.72553 3.3381 3.31726C3.80269 2.90512 4.33745 2.56003 4.92289 2.29458C5.51139 2.03141 6.14123 1.84801 6.79132 1.75053C7.49221 1.64907 8.2007 1.59422 8.91085 1.58643L9.93056 1.57422H126.07L127.102 1.58692C127.806 1.59432 128.508 1.64868 129.202 1.74955C129.859 1.84825 130.495 2.03293 131.09 2.29751C132.263 2.83247 133.218 3.67882 133.82 4.71795C134.114 5.23756 134.318 5.79361 134.424 6.36721C134.542 6.99134 134.607 7.62222 134.621 8.25482C134.624 8.53808 134.624 8.84234 134.624 9.14514C134.633 9.52022 134.633 9.87723 134.633 10.2372V31.1702C134.633 31.5336 134.633 31.8882 134.624 32.2456C134.624 32.5709 134.624 32.8689 134.62 33.1755C134.607 33.7968 134.542 34.4165 134.427 35.0294C134.321 35.6106 134.115 36.174 133.816 36.6998C133.518 37.2123 133.131 37.68 132.669 38.0858C132.207 38.4996 131.673 38.845 131.087 39.1085C130.494 39.3745 129.858 39.5599 129.202 39.6584C128.504 39.7594 127.797 39.8139 127.09 39.8215C126.759 39.8283 126.412 39.8322 126.076 39.8322L124.85 39.8342L9.93001 39.8322Z" fill="black"/>
<path id="Vector_3" d="M33.2973 21.0034C33.3081 20.1688 33.5298 19.3504 33.9418 18.6244C34.3538 17.8985 34.9428 17.2885 35.6539 16.8514C35.2021 16.2062 34.6062 15.6753 33.9134 15.3007C33.2205 14.9262 32.4499 14.7183 31.6627 14.6937C29.9835 14.5174 28.3555 15.6985 27.4998 15.6985C26.6275 15.6985 25.31 14.7112 23.8913 14.7404C22.9736 14.77 22.0793 15.0369 21.2954 15.5149C20.5115 15.993 19.8649 16.666 19.4184 17.4682C17.4844 20.8167 18.927 25.7377 20.7796 28.4443C21.7065 29.7697 22.7898 31.2501 24.2072 31.1976C25.5943 31.1401 26.1123 30.3131 27.7866 30.3131C29.4454 30.3131 29.9314 31.1976 31.3776 31.1642C32.866 31.1401 33.8038 29.833 34.6981 28.4951C35.3641 27.5507 35.8766 26.507 36.2166 25.4026C35.3518 25.0369 34.6139 24.4247 34.0948 23.6424C33.5757 22.8601 33.2983 21.9423 33.2973 21.0034Z" fill="white"/>
<path id="Vector_4" d="M30.5658 12.9145C31.3774 11.9403 31.7772 10.6881 31.6804 9.42383C30.4405 9.55405 29.2953 10.1466 28.4728 11.0835C28.0706 11.5411 27.7626 12.0736 27.5664 12.6504C27.3702 13.2271 27.2895 13.8369 27.3291 14.4449C27.9492 14.4513 28.5627 14.3168 29.1234 14.0518C29.684 13.7867 30.1773 13.3978 30.5658 12.9145Z" fill="white"/>
<path id="Vector_5" d="M50.8311 27.8427H46.0977L44.961 31.1992H42.9561L47.4395 18.7812H49.5225L54.0059 31.1992H51.9668L50.8311 27.8427ZM46.5879 26.2939H50.3399L48.4903 20.8466H48.4385L46.5879 26.2939Z" fill="white"/>
<path id="Vector_6" d="M63.6885 26.6726C63.6885 29.486 62.1827 31.2936 59.9102 31.2936C59.3346 31.3238 58.7621 31.1912 58.2583 30.911C57.7545 30.6309 57.3398 30.2145 57.0616 29.7096H57.0186V34.194H55.1602V22.1452H56.959V23.6511H56.9932C57.2842 23.1486 57.7059 22.7344 58.2135 22.4526C58.7212 22.1707 59.2957 22.0318 59.876 22.0505C62.1739 22.0505 63.6885 23.8669 63.6885 26.6726ZM61.7784 26.6726C61.7784 24.8396 60.8311 23.6345 59.3858 23.6345C57.9659 23.6345 57.0108 24.8649 57.0108 26.6726C57.0108 28.4968 57.9659 29.7185 59.3858 29.7185C60.8311 29.7185 61.7784 28.5222 61.7784 26.6726Z" fill="white"/>
<path id="Vector_7" d="M73.6534 26.6725C73.6534 29.486 72.1475 31.2936 69.8751 31.2936C69.2994 31.3237 68.7269 31.1911 68.2231 30.911C67.7193 30.6309 67.3046 30.2145 67.0264 29.7096H66.9834V34.194H65.125V22.1452H66.9239V23.6511H66.958C67.249 23.1486 67.6707 22.7344 68.1784 22.4526C68.686 22.1707 69.2605 22.0318 69.8409 22.0505C72.1387 22.0505 73.6534 23.8669 73.6534 26.6725ZM71.7432 26.6725C71.7432 24.8395 70.796 23.6345 69.3506 23.6345C67.9307 23.6345 66.9756 24.8649 66.9756 26.6725C66.9756 28.4968 67.9307 29.7184 69.3506 29.7184C70.796 29.7184 71.7432 28.5222 71.7432 26.6725Z" fill="white"/>
<path id="Vector_8" d="M80.2393 27.7393C80.377 28.9708 81.5733 29.7793 83.2081 29.7793C84.7745 29.7793 85.9014 28.9707 85.9014 27.8604C85.9014 26.8965 85.2217 26.3194 83.6124 25.9238L82.003 25.5361C79.7227 24.9854 78.6641 23.919 78.6641 22.1885C78.6641 20.0459 80.5313 18.5742 83.1827 18.5742C85.8067 18.5742 87.6055 20.0459 87.6661 22.1885H85.7901C85.6778 20.9492 84.6534 20.2012 83.1563 20.2012C81.6592 20.2012 80.6348 20.958 80.6348 22.0596C80.6348 22.9375 81.2891 23.4541 82.8897 23.8496L84.2578 24.1855C86.8057 24.7881 87.8643 25.8115 87.8643 27.6279C87.8643 29.9511 86.0137 31.4062 83.0703 31.4062C80.3164 31.4062 78.4571 29.9853 78.3369 27.7392L80.2393 27.7393Z" fill="white"/>
<path id="Vector_9" d="M91.875 20.0039V22.1465H93.5967V23.6182H91.875V28.6094C91.875 29.3848 92.2198 29.7461 92.9766 29.7461C93.181 29.7426 93.385 29.7282 93.5879 29.7031V31.166C93.2476 31.2296 92.9018 31.2584 92.5557 31.252C90.7227 31.252 90.0078 30.5635 90.0078 28.8076V23.6182H88.6914V22.1465H90.0078V20.0039H91.875Z" fill="white"/>
<path id="Vector_10" d="M94.5938 26.6739C94.5938 23.8252 96.2714 22.0352 98.8876 22.0352C101.512 22.0352 103.182 23.8252 103.182 26.6739C103.182 29.5303 101.521 31.3125 98.8876 31.3125C96.2548 31.3125 94.5938 29.5303 94.5938 26.6739ZM101.289 26.6739C101.289 24.7198 100.393 23.5664 98.8876 23.5664C97.3818 23.5664 96.4873 24.7285 96.4873 26.6739C96.4873 28.6358 97.3818 29.7803 98.8876 29.7803C100.393 29.7803 101.289 28.6358 101.289 26.6739Z" fill="white"/>
<path id="Vector_11" d="M104.714 22.1451H106.487V23.6861H106.53C106.65 23.2048 106.932 22.7795 107.328 22.4816C107.725 22.1837 108.212 22.0315 108.708 22.0504C108.922 22.0496 109.135 22.0729 109.344 22.1197V23.858C109.074 23.7754 108.792 23.7374 108.509 23.7457C108.239 23.7347 107.97 23.7823 107.72 23.8852C107.471 23.9881 107.246 24.1439 107.062 24.3417C106.878 24.5396 106.739 24.775 106.655 25.0317C106.57 25.2883 106.542 25.5602 106.573 25.8287V31.1988H104.714V22.1451Z" fill="white"/>
<path id="Vector_12" d="M117.913 28.541C117.663 30.1846 116.062 31.3125 114.014 31.3125C111.38 31.3125 109.746 29.5479 109.746 26.7168C109.746 23.877 111.389 22.0352 113.936 22.0352C116.441 22.0352 118.016 23.7559 118.016 26.501V27.1377H111.622V27.25C111.592 27.5832 111.634 27.9189 111.744 28.2347C111.854 28.5506 112.03 28.8394 112.261 29.0819C112.491 29.3245 112.77 29.5152 113.08 29.6415C113.39 29.7678 113.723 29.8268 114.057 29.8145C114.496 29.8556 114.937 29.7539 115.314 29.5245C115.691 29.295 115.983 28.9501 116.148 28.541H117.913ZM111.63 25.8389H116.157C116.174 25.5393 116.128 25.2395 116.023 24.9583C115.919 24.6771 115.757 24.4205 115.549 24.2048C115.34 23.989 115.089 23.8187 114.812 23.7045C114.534 23.5902 114.236 23.5346 113.936 23.541C113.634 23.5392 113.334 23.5974 113.053 23.7121C112.773 23.8269 112.519 23.9959 112.305 24.2096C112.09 24.4232 111.92 24.6772 111.805 24.9568C111.689 25.2365 111.63 25.5363 111.63 25.8389Z" fill="white"/>
<path id="Vector_13" d="M46.3545 9.43451C46.7441 9.40655 47.1351 9.46541 47.4992 9.60684C47.8633 9.74827 48.1915 9.96875 48.4601 10.2524C48.7287 10.536 48.931 10.8757 49.0524 11.247C49.1738 11.6183 49.2113 12.0119 49.1621 12.3994C49.1621 14.3056 48.1319 15.4014 46.3545 15.4014H44.1992V9.43451H46.3545ZM45.126 14.5575H46.251C46.5294 14.5742 46.808 14.5285 47.0665 14.4239C47.3251 14.3193 47.557 14.1584 47.7455 13.9528C47.934 13.7472 48.0743 13.5022 48.1562 13.2356C48.238 12.969 48.2594 12.6875 48.2188 12.4115C48.2565 12.1367 48.2329 11.8569 48.1498 11.5923C48.0667 11.3276 47.9261 11.0846 47.738 10.8807C47.5499 10.6767 47.3191 10.5169 47.062 10.4127C46.8049 10.3084 46.528 10.2623 46.251 10.2777H45.126V14.5575Z" fill="white"/>
<path id="Vector_14" d="M50.2092 13.1468C50.1809 12.8509 50.2148 12.5524 50.3086 12.2703C50.4025 11.9882 50.5542 11.7289 50.7542 11.5089C50.9541 11.2889 51.1978 11.1131 51.4697 10.9929C51.7415 10.8726 52.0355 10.8105 52.3328 10.8105C52.63 10.8105 52.924 10.8726 53.1959 10.9929C53.4677 11.1131 53.7114 11.2889 53.9114 11.5089C54.1113 11.7289 54.2631 11.9882 54.3569 12.2703C54.4508 12.5524 54.4846 12.8509 54.4563 13.1468C54.4852 13.4431 54.4517 13.742 54.3581 14.0246C54.2645 14.3071 54.1129 14.5669 53.9129 14.7873C53.7129 15.0077 53.469 15.1839 53.1969 15.3044C52.9247 15.4249 52.6304 15.4872 52.3328 15.4872C52.0352 15.4872 51.7408 15.4249 51.4687 15.3044C51.1966 15.1839 50.9527 15.0077 50.7527 14.7873C50.5527 14.5669 50.401 14.3071 50.3074 14.0246C50.2138 13.742 50.1804 13.4431 50.2092 13.1468ZM53.5422 13.1468C53.5422 12.1708 53.1038 11.6 52.3342 11.6C51.5618 11.6 51.1272 12.1708 51.1272 13.1469C51.1272 14.1307 51.5618 14.6971 52.3342 14.6971C53.1038 14.6971 53.5423 14.1268 53.5423 13.1468H53.5422Z" fill="white"/>
<path id="Vector_15" d="M60.1016 15.4013H59.1797L58.249 12.0849H58.1787L57.252 15.4013H56.3389L55.0977 10.8984H55.999L56.8057 14.3344H56.8721L57.7979 10.8984H58.6504L59.5762 14.3344H59.6465L60.4492 10.8984H61.3379L60.1016 15.4013Z" fill="white"/>
<path id="Vector_16" d="M62.3818 10.898H63.2372V11.6133H63.3036C63.4163 11.3564 63.6063 11.141 63.8472 10.9972C64.088 10.8534 64.3678 10.7884 64.6474 10.8111C64.8665 10.7946 65.0865 10.8276 65.2911 10.9077C65.4957 10.9878 65.6796 11.1129 65.8293 11.2738C65.979 11.4346 66.0906 11.6271 66.1558 11.8369C66.221 12.0467 66.2381 12.2685 66.206 12.4859V15.4009H65.3173V12.709C65.3173 11.9854 65.0029 11.6255 64.3456 11.6255C64.1969 11.6186 64.0484 11.6439 63.9103 11.6998C63.7723 11.7556 63.6479 11.8406 63.5458 11.949C63.4437 12.0574 63.3662 12.1866 63.3186 12.3277C63.2711 12.4688 63.2547 12.6186 63.2704 12.7667V15.4009H62.3818V10.898Z" fill="white"/>
<path id="Vector_17" d="M67.6221 9.14062H68.5108V15.4014H67.6221V9.14062Z" fill="white"/>
<path id="Vector_18" d="M69.7463 13.147C69.718 12.8511 69.7519 12.5525 69.8458 12.2704C69.9396 11.9883 70.0914 11.729 70.2914 11.509C70.4913 11.289 70.7351 11.1132 71.0069 10.993C71.2788 10.8727 71.5728 10.8105 71.8701 10.8105C72.1674 10.8105 72.4614 10.8727 72.7333 10.993C73.0051 11.1132 73.2489 11.289 73.4488 11.509C73.6488 11.729 73.8006 11.9883 73.8944 12.2704C73.9883 12.5525 74.0222 12.8511 73.9939 13.147C74.0227 13.4432 73.9892 13.7422 73.8956 14.0247C73.802 14.3073 73.6503 14.5671 73.4503 14.7875C73.2503 15.0079 73.0063 15.184 72.7342 15.3046C72.4621 15.4251 72.1677 15.4874 71.8701 15.4874C71.5725 15.4874 71.2781 15.4251 71.006 15.3046C70.7339 15.184 70.49 15.0079 70.2899 14.7875C70.0899 14.5671 69.9382 14.3073 69.8446 14.0247C69.751 13.7422 69.7175 13.4432 69.7463 13.147ZM73.0793 13.147C73.0793 12.1709 72.6408 11.6001 71.8713 11.6001C71.0989 11.6001 70.6643 12.1709 70.6643 13.147C70.6643 14.1309 71.0989 14.6973 71.8713 14.6973C72.6409 14.6973 73.0793 14.127 73.0793 13.147Z" fill="white"/>
<path id="Vector_19" d="M74.9297 14.1269C74.9297 13.3164 75.5332 12.8491 76.6045 12.7827L77.8243 12.7124V12.3237C77.8243 11.8481 77.5098 11.5796 76.9024 11.5796C76.4063 11.5796 76.0625 11.7617 75.9639 12.0801H75.1035C75.1944 11.3066 75.9219 10.8105 76.9434 10.8105C78.0723 10.8105 78.709 11.3725 78.709 12.3237V15.4004H77.8535V14.7676H77.7832C77.6405 14.9946 77.4401 15.1796 77.2025 15.3038C76.9649 15.428 76.6985 15.487 76.4307 15.4746C76.2417 15.4942 76.0506 15.4741 75.8698 15.4154C75.6891 15.3567 75.5226 15.2607 75.3812 15.1338C75.2398 15.0068 75.1266 14.8516 75.0488 14.6782C74.971 14.5048 74.9305 14.317 74.9297 14.1269ZM77.8243 13.7422V13.3657L76.7246 13.436C76.1045 13.4775 75.8233 13.6885 75.8233 14.0854C75.8233 14.4907 76.1748 14.7265 76.6583 14.7265C76.7999 14.7409 76.943 14.7266 77.079 14.6845C77.215 14.6424 77.3412 14.5734 77.4499 14.4815C77.5587 14.3897 77.6479 14.2769 77.7122 14.1499C77.7765 14.0229 77.8146 13.8842 77.8243 13.7422Z" fill="white"/>
<path id="Vector_20" d="M79.877 13.148C79.877 11.7251 80.6083 10.8238 81.746 10.8238C82.0274 10.8108 82.3068 10.8782 82.5514 11.0181C82.7959 11.158 82.9955 11.3646 83.127 11.6138H83.1934V9.14062H84.0821V15.4014H83.2305V14.69H83.1601C83.0185 14.9374 82.812 15.1415 82.5627 15.28C82.3135 15.4184 82.031 15.4861 81.746 15.4756C80.6005 15.4756 79.877 14.5743 79.877 13.148ZM80.795 13.148C80.795 14.1031 81.2452 14.6778 81.9981 14.6778C82.7471 14.6778 83.21 14.0948 83.21 13.1519C83.21 12.2134 82.7423 11.6221 81.9981 11.6221C81.25 11.6221 80.795 12.2007 80.795 13.148Z" fill="white"/>
<path id="Vector_21" d="M87.7581 13.1468C87.7297 12.8509 87.7636 12.5524 87.8574 12.2703C87.9513 11.9882 88.103 11.7289 88.303 11.5089C88.5029 11.2889 88.7466 11.1131 89.0185 10.9929C89.2903 10.8726 89.5843 10.8105 89.8816 10.8105C90.1789 10.8105 90.4728 10.8726 90.7447 10.9929C91.0166 11.1131 91.2603 11.2889 91.4602 11.5089C91.6601 11.7289 91.8119 11.9882 91.9057 12.2703C91.9996 12.5524 92.0334 12.8509 92.0051 13.1468C92.034 13.4431 92.0005 13.742 91.9069 14.0246C91.8133 14.3071 91.6617 14.5669 91.4617 14.7873C91.2617 15.0077 91.0178 15.1839 90.7457 15.3044C90.4735 15.4249 90.1792 15.4872 89.8816 15.4872C89.584 15.4872 89.2896 15.4249 89.0175 15.3044C88.7454 15.1839 88.5015 15.0077 88.3015 14.7873C88.1015 14.5669 87.9498 14.3071 87.8562 14.0246C87.7627 13.742 87.7292 13.4431 87.7581 13.1468ZM91.0911 13.1468C91.0911 12.1708 90.6526 11.6 89.8831 11.6C89.1106 11.6 88.6761 12.1708 88.6761 13.1469C88.6761 14.1307 89.1106 14.6971 89.8831 14.6971C90.6526 14.6971 91.0911 14.1268 91.0911 13.1468Z" fill="white"/>
<path id="Vector_22" d="M93.1982 10.898H94.0536V11.6133H94.1201C94.2327 11.3564 94.4227 11.141 94.6636 10.9972C94.9045 10.8534 95.1842 10.7884 95.4638 10.8111C95.6829 10.7946 95.9029 10.8276 96.1075 10.9077C96.3121 10.9878 96.4961 11.1129 96.6457 11.2738C96.7954 11.4346 96.907 11.6271 96.9722 11.8369C97.0374 12.0467 97.0546 12.2685 97.0224 12.4859V15.4009H96.1337V12.709C96.1337 11.9854 95.8193 11.6255 95.1621 11.6255C95.0133 11.6186 94.8648 11.6439 94.7267 11.6998C94.5887 11.7556 94.4643 11.8406 94.3622 11.949C94.2601 12.0574 94.1826 12.1866 94.1351 12.3277C94.0875 12.4688 94.0711 12.6186 94.0868 12.7667V15.4009H93.1982V10.898Z" fill="white"/>
<path id="Vector_23" d="M102.044 9.77734V10.919H103.019V11.6675H102.044V13.9829C102.044 14.4546 102.238 14.6612 102.68 14.6612C102.794 14.6608 102.907 14.6539 103.019 14.6406V15.3809C102.86 15.4094 102.698 15.4246 102.536 15.4263C101.547 15.4263 101.154 15.0786 101.154 14.2105V11.6675H100.439V10.9189H101.154V9.77734H102.044Z" fill="white"/>
<path id="Vector_24" d="M104.232 9.14062H105.113V11.6221H105.183C105.301 11.3628 105.497 11.1462 105.742 11.0018C105.988 10.8575 106.272 10.7924 106.556 10.8155C106.774 10.8036 106.992 10.84 107.194 10.922C107.397 11.0041 107.578 11.1297 107.726 11.2901C107.875 11.4504 107.985 11.6415 108.051 11.8496C108.117 12.0577 108.136 12.2778 108.107 12.4942V15.4014H107.217V12.7134C107.217 11.9942 106.882 11.6299 106.255 11.6299C106.102 11.6174 105.948 11.6384 105.804 11.6914C105.661 11.7445 105.53 11.8283 105.422 11.937C105.314 12.0458 105.231 12.1768 105.179 12.3209C105.127 12.4651 105.107 12.6188 105.121 12.7715V15.4014H104.232V9.14062Z" fill="white"/>
<path id="Vector_25" d="M113.29 14.1846C113.169 14.5962 112.907 14.9521 112.551 15.1903C112.194 15.4284 111.765 15.5336 111.339 15.4873C111.042 15.4952 110.747 15.4384 110.475 15.3208C110.202 15.2033 109.958 15.0279 109.76 14.8067C109.563 14.5856 109.415 14.324 109.328 14.0402C109.242 13.7564 109.218 13.4571 109.258 13.1631C109.219 12.8683 109.243 12.5683 109.33 12.2836C109.416 11.999 109.563 11.7362 109.76 11.5131C109.957 11.2901 110.199 11.1119 110.471 10.9907C110.743 10.8695 111.037 10.8081 111.335 10.8106C112.588 10.8106 113.343 11.6666 113.343 13.0806V13.3907H110.164V13.4405C110.15 13.6057 110.171 13.7721 110.225 13.9288C110.279 14.0856 110.365 14.2293 110.478 14.3507C110.591 14.4722 110.728 14.5687 110.88 14.6341C111.033 14.6995 111.197 14.7323 111.363 14.7305C111.576 14.756 111.791 14.7177 111.982 14.6205C112.172 14.5233 112.33 14.3716 112.434 14.1846H113.29ZM110.164 12.7334H112.438C112.449 12.5823 112.429 12.4305 112.378 12.2878C112.327 12.1451 112.247 12.0146 112.142 11.9047C112.038 11.7949 111.912 11.7081 111.772 11.6499C111.632 11.5917 111.481 11.5635 111.33 11.5669C111.176 11.565 111.023 11.5939 110.881 11.6518C110.739 11.7098 110.609 11.7956 110.501 11.9043C110.392 12.013 110.306 12.1424 110.248 12.2848C110.191 12.4272 110.162 12.5797 110.164 12.7334Z" fill="white"/>
</g>
</g>
<defs>
<clipPath id="clip0_1505_4139">
<rect width="136" height="40" fill="white" transform="translate(0 0.703125)"/>
</clipPath>
</defs>
</svg>
