<svg width="136" height="41" viewBox="0 0 136 41" fill="none" xmlns="http://www.w3.org/2000/svg">
<g id="google-play.svg" clip-path="url(#clip0_1505_4119)">
<path id="Vector" d="M130.5 0.703125H5.5C2.73858 0.703125 0.5 2.9417 0.5 5.70312V35.7031C0.5 38.4646 2.73858 40.7031 5.5 40.7031H130.5C133.261 40.7031 135.5 38.4646 135.5 35.7031V5.70312C135.5 2.9417 133.261 0.703125 130.5 0.703125Z" fill="black"/>
<path id="Vector_2" d="M130.5 1.50293C131.614 1.50421 132.681 1.94716 133.468 2.73458C134.256 3.522 134.699 4.58959 134.7 5.70313V35.7031C134.699 36.8166 134.256 37.8842 133.468 38.6716C132.681 39.459 131.614 39.902 130.5 39.9033H5.5C4.38645 39.902 3.31888 39.4591 2.5315 38.6716C1.74412 37.8842 1.30123 36.8166 1.3 35.7031V5.70313C1.30121 4.58957 1.74409 3.52197 2.53148 2.73455C3.31886 1.94713 4.38644 1.50419 5.5 1.50293H130.5ZM130.5 0.703125H5.5C4.17511 0.707003 2.90559 1.23503 1.96875 2.17188C1.03191 3.10872 0.503878 4.37824 0.5 5.70313V35.7031C0.503878 37.028 1.03191 38.2975 1.96875 39.2343C2.90559 40.1712 4.17511 40.6992 5.5 40.7031H130.5C131.825 40.6992 133.094 40.1712 134.031 39.2343C134.968 38.2975 135.496 37.028 135.5 35.7031V5.70313C135.496 4.37824 134.968 3.10872 134.031 2.17188C133.094 1.23503 131.825 0.707003 130.5 0.703125Z" fill="#A6A6A6"/>
<path id="Vector_3" d="M47.9183 10.946C47.9365 11.3129 47.8798 11.6797 47.7517 12.0241C47.6236 12.3684 47.4267 12.683 47.1731 12.9489C46.8889 13.2436 46.5456 13.4751 46.1658 13.628C45.786 13.781 45.3782 13.8521 44.969 13.8366C44.5572 13.8403 44.1489 13.7616 43.7679 13.6052C43.387 13.4488 43.0411 13.2178 42.7507 12.9259C42.4603 12.6339 42.2312 12.2869 42.0768 11.9051C41.9225 11.5233 41.846 11.1145 41.8519 10.7028C41.8461 10.291 41.9226 9.88224 42.0769 9.50045C42.2313 9.11867 42.4604 8.77159 42.7508 8.4796C43.0412 8.18761 43.387 7.95659 43.7679 7.80013C44.1489 7.64367 44.5572 7.56491 44.969 7.56848C45.3924 7.5672 45.8115 7.6528 46.2005 7.81998C46.5618 7.96642 46.8833 8.19613 47.139 8.49038L46.6116 9.01818C46.4106 8.78163 46.158 8.59442 45.8732 8.47099C45.5884 8.34756 45.279 8.2912 44.969 8.30628C44.6569 8.30467 44.3477 8.36606 44.0599 8.48677C43.7721 8.60748 43.5117 8.78503 43.2941 9.00879C43.0766 9.23255 42.9064 9.49792 42.7938 9.78899C42.6813 10.0801 42.6286 10.3909 42.639 10.7028C42.6316 11.17 42.763 11.6289 43.0167 12.0212C43.2704 12.4136 43.6349 12.7218 44.064 12.9068C44.4931 13.0917 44.9675 13.1451 45.4269 13.0601C45.8864 12.9751 46.3103 12.7556 46.6448 12.4294C46.9527 12.0976 47.1312 11.6663 47.1477 11.214H44.969V10.4933H47.8763C47.9038 10.6426 47.9178 10.7941 47.9183 10.946Z" fill="white" stroke="white" stroke-width="0.2" stroke-miterlimit="10"/>
<path id="Vector_4" d="M52.5273 8.44042H49.7949V10.3427H52.2588V11.0636H49.7949V12.9659H52.5273V13.7032H49.0244V7.70312H52.5273V8.44042Z" fill="white" stroke="white" stroke-width="0.2" stroke-miterlimit="10"/>
<path id="Vector_5" d="M55.7784 13.7032H55.0069V8.44042H53.3311V7.70312H57.4542V8.44042H55.7784V13.7032Z" fill="white" stroke="white" stroke-width="0.2" stroke-miterlimit="10"/>
<path id="Vector_6" d="M60.4375 13.7032V7.70312H61.208V13.7032H60.4375Z" fill="white" stroke="white" stroke-width="0.2" stroke-miterlimit="10"/>
<path id="Vector_7" d="M64.6288 13.7032H63.8573V8.44042H62.1816V7.70312H66.3046V8.44042H64.6288V13.7032Z" fill="white" stroke="white" stroke-width="0.2" stroke-miterlimit="10"/>
<path id="Vector_8" d="M74.1092 12.9273C73.5252 13.5095 72.7342 13.8365 71.9095 13.8365C71.0848 13.8365 70.2938 13.5095 69.7098 12.9273C69.4209 12.6347 69.1938 12.2869 69.0419 11.9048C68.8901 11.5226 68.8167 11.1138 68.826 10.7027C68.8167 10.2915 68.8901 9.88275 69.0419 9.50059C69.1938 9.11842 69.4209 8.77069 69.7098 8.47806C69.9985 8.18933 70.3412 7.96036 70.7185 7.80426C71.0957 7.64816 71.5001 7.568 71.9084 7.56836C72.3166 7.56872 72.7208 7.6496 73.0978 7.80637C73.4748 7.96314 73.8172 8.19271 74.1053 8.48196C74.3944 8.77382 74.622 9.12077 74.7745 9.50224C74.927 9.88371 75.0013 10.2919 74.993 10.7027C75.0021 11.1138 74.9285 11.5225 74.7767 11.9046C74.6249 12.2867 74.3979 12.6345 74.1092 12.9273ZM70.2791 12.4249C70.7116 12.8567 71.2978 13.0992 71.909 13.0992C72.5202 13.0992 73.1064 12.8567 73.5389 12.4249C73.7607 12.1978 73.9342 11.9281 74.0488 11.6321C74.1634 11.3361 74.2169 11.0199 74.2059 10.7027C74.2169 10.3854 74.1634 10.0692 74.0488 9.77324C73.9342 9.47723 73.7607 9.20754 73.5389 8.98046C73.1064 8.54866 72.5202 8.30615 71.909 8.30615C71.2978 8.30615 70.7116 8.54866 70.2791 8.98046C70.0576 9.20772 69.8844 9.47747 69.77 9.77344C69.6555 10.0694 69.6021 10.3855 69.6131 10.7027C69.6021 11.0198 69.6555 11.3359 69.77 11.6319C69.8844 11.9279 70.0576 12.1976 70.2791 12.4249Z" fill="white" stroke="white" stroke-width="0.2" stroke-miterlimit="10"/>
<path id="Vector_9" d="M76.0752 13.7032V7.70312H77.0137L79.9297 12.3707H79.9629L79.9297 11.2144V7.70312H80.7012V13.7032H79.8965L76.8457 8.80953H76.8125L76.8457 9.96582V13.7032H76.0752Z" fill="white" stroke="white" stroke-width="0.2" stroke-miterlimit="10"/>
<path id="Vector_10" d="M68.6353 22.4551C67.7948 22.4583 66.9741 22.7105 66.2768 23.1798C65.5795 23.649 65.0369 24.3144 64.7174 25.0919C64.398 25.8693 64.3161 26.724 64.482 27.5479C64.6479 28.3719 65.0543 29.1282 65.6497 29.7215C66.2452 30.3147 67.0031 30.7181 67.8277 30.8809C68.6523 31.0437 69.5066 30.9585 70.2828 30.6362C71.0591 30.3138 71.7224 29.7686 72.189 29.0695C72.6556 28.3704 72.9047 27.5488 72.9046 26.7082C72.9129 26.1461 72.808 25.588 72.5962 25.0672C72.3843 24.5463 72.0699 24.0735 71.6716 23.6767C71.2733 23.2799 70.7992 22.9672 70.2776 22.7574C69.756 22.5475 69.1975 22.4447 68.6353 22.4551ZM68.6353 29.2859C68.1177 29.3228 67.601 29.2031 67.1524 28.9422C66.7038 28.6813 66.3441 28.2914 66.1203 27.8232C65.8964 27.3551 65.8186 26.8303 65.8971 26.3174C65.9756 25.8044 66.2067 25.327 66.5604 24.9472C66.914 24.5674 67.3738 24.3029 67.8799 24.1881C68.386 24.0733 68.9149 24.1136 69.3978 24.3036C69.8807 24.4936 70.2952 24.8246 70.5873 25.2535C70.8795 25.6824 71.0357 26.1893 71.0357 26.7082C71.0515 27.0361 71.0014 27.3637 70.8886 27.672C70.7757 27.9802 70.6024 28.2627 70.3787 28.5029C70.155 28.7431 69.8856 28.9361 69.5862 29.0706C69.2868 29.2051 68.9635 29.2783 68.6353 29.2859ZM59.3219 22.4551C58.4814 22.4583 57.6607 22.7104 56.9634 23.1797C56.2661 23.649 55.7234 24.3143 55.404 25.0918C55.0845 25.8692 55.0026 26.7239 55.1685 27.5479C55.3344 28.3719 55.7407 29.1282 56.3362 29.7214C56.9317 30.3146 57.6895 30.7181 58.5141 30.8809C59.3387 31.0437 60.1931 30.9586 60.9693 30.6362C61.7456 30.3138 62.4089 29.7686 62.8755 29.0695C63.3421 28.3704 63.5912 27.5488 63.5911 26.7082C63.5994 26.1461 63.4945 25.588 63.2827 25.0672C63.0709 24.5464 62.7564 24.0735 62.3581 23.6767C61.9598 23.2799 61.4858 22.9673 60.9642 22.7574C60.4426 22.5475 59.8841 22.4448 59.3219 22.4551ZM59.3219 29.2859C58.8043 29.3228 58.2876 29.2031 57.839 28.9422C57.3904 28.6813 57.0307 28.2914 56.8069 27.8232C56.583 27.3551 56.5052 26.8303 56.5837 26.3174C56.6622 25.8044 56.8933 25.327 57.247 24.9472C57.6006 24.5674 58.0604 24.3029 58.5665 24.1881C59.0726 24.0733 59.6015 24.1136 60.0844 24.3036C60.5673 24.4936 60.9818 24.8246 61.2739 25.2535C61.5661 25.6824 61.7223 26.1893 61.7223 26.7082C61.7381 27.0361 61.688 27.3638 61.5752 27.672C61.4624 27.9802 61.289 28.2627 61.0653 28.5029C60.8416 28.7431 60.5722 28.9361 60.2728 29.0706C59.9734 29.2051 59.6501 29.2783 59.3219 29.2859ZM48.2431 23.7601V25.5644H52.5608C52.4985 26.4107 52.1522 27.2112 51.578 27.836C51.1454 28.2771 50.625 28.6225 50.0506 28.85C49.4762 29.0776 48.8605 29.1821 48.2431 29.157C46.9811 29.14 45.7766 28.6266 44.8902 27.7281C44.0038 26.8297 43.5068 25.6183 43.5068 24.3561C43.5068 23.094 44.0038 21.8826 44.8902 20.9841C45.7766 20.0857 46.9811 19.5723 48.2431 19.5552C49.4554 19.5394 50.6249 20.0025 51.4975 20.844L52.7702 19.5713C52.1748 18.9819 51.4677 18.5172 50.6903 18.2046C49.9129 17.892 49.0809 17.7377 48.2431 17.7508C47.3676 17.7381 46.4983 17.8995 45.6858 18.2258C44.8732 18.552 44.1336 19.0365 43.51 19.6511C42.8863 20.2657 42.3911 20.9982 42.0531 21.8059C41.7151 22.6137 41.541 23.4805 41.541 24.3561C41.541 25.2317 41.7151 26.0986 42.0531 26.9063C42.3911 27.7141 42.8863 28.4465 43.51 29.0612C44.1336 29.6758 44.8732 30.1603 45.6858 30.4865C46.4983 30.8128 47.3676 30.9742 48.2431 30.9614C49.0986 30.9969 49.9518 30.8501 50.7462 30.5307C51.5406 30.2112 52.258 29.7265 52.8507 29.1087C53.9032 27.96 54.4641 26.445 54.4135 24.8878C54.4177 24.5097 54.3853 24.132 54.3167 23.7601H48.2431ZM93.5514 25.1616C93.2958 24.3913 92.8093 23.7183 92.1579 23.234C91.5065 22.7498 90.7218 22.4779 89.9104 22.4551C89.364 22.4585 88.8239 22.5727 88.3228 22.7907C87.8217 23.0088 87.37 23.3262 86.9951 23.7237C86.6201 24.1213 86.3297 24.5907 86.1413 25.1037C85.9529 25.6167 85.8705 26.1625 85.899 26.7082C85.8867 27.2674 85.9872 27.8233 86.1946 28.3428C86.402 28.8623 86.7119 29.3346 87.1059 29.7316C87.4998 30.1286 87.9698 30.4421 88.4877 30.6534C89.0055 30.8647 89.5607 30.9695 90.1199 30.9614C90.8206 30.9653 91.5112 30.7951 92.1298 30.4661C92.7485 30.1371 93.2757 29.6596 93.6641 29.0765L92.2142 28.1099C91.997 28.4707 91.6898 28.7687 91.3226 28.9749C90.9555 29.1811 90.541 29.2883 90.1199 29.2859C89.6866 29.3025 89.2584 29.1885 88.8906 28.9587C88.5229 28.7289 88.2327 28.3939 88.0577 27.9971L93.7448 25.645L93.5514 25.1616ZM87.7517 26.5794C87.7317 26.2699 87.7736 25.9594 87.875 25.6663C87.9764 25.3731 88.1353 25.1031 88.3423 24.8721C88.5493 24.6411 88.8003 24.4536 89.0806 24.3208C89.361 24.188 89.665 24.1124 89.9749 24.0984C90.2975 24.0772 90.6193 24.1514 90.9001 24.3119C91.1809 24.4723 91.4082 24.7119 91.5537 25.0006L87.7517 26.5794ZM83.1279 30.7036H84.9967V18.202H83.1279V30.7036ZM80.0669 23.4056H80.0025C79.7184 23.097 79.3717 22.8525 78.9855 22.6886C78.5993 22.5246 78.1826 22.4451 77.7631 22.4551C76.6665 22.5018 75.6302 22.9703 74.8707 23.7628C74.1112 24.5553 73.6872 25.6106 73.6872 26.7083C73.6872 27.806 74.1112 28.8612 74.8707 29.6538C75.6302 30.4463 76.6665 30.9148 77.7631 30.9614C78.1842 30.9726 78.6027 30.892 78.9894 30.725C79.3762 30.5581 79.7219 30.3089 80.0025 29.9948H80.0669V30.607C80.0669 32.2342 79.197 33.1041 77.7953 33.1041C77.3282 33.093 76.875 32.943 76.4934 32.6733C76.1118 32.4036 75.8192 32.0264 75.6527 31.5897L74.0255 32.2664C74.3322 33.0131 74.8549 33.6512 75.5265 34.099C76.1981 34.5467 76.9882 34.7837 77.7953 34.7796C79.9864 34.7796 81.8391 33.4908 81.8391 30.3492V22.7128H80.0669V23.4056ZM77.9243 29.2859C77.2784 29.2312 76.6766 28.9359 76.238 28.4585C75.7994 27.9812 75.556 27.3565 75.556 26.7083C75.556 26.06 75.7994 25.4354 76.238 24.9581C76.6766 24.4807 77.2784 24.1854 77.9243 24.1306C78.2457 24.1463 78.5606 24.2266 78.8503 24.3666C79.14 24.5065 79.3985 24.7034 79.6105 24.9455C79.8225 25.1875 79.9835 25.4697 80.0841 25.7754C80.1847 26.081 80.2227 26.4037 80.1958 26.7243C80.221 27.043 80.1816 27.3634 80.08 27.6665C79.9784 27.9695 79.8168 28.249 79.6047 28.4881C79.3927 28.7272 79.1346 28.9212 78.8458 29.0582C78.5571 29.1953 78.2437 29.2728 77.9243 29.2859ZM102.306 18.2022H97.8341V30.7036H99.6998V25.9672H102.306C102.834 25.9962 103.362 25.9172 103.858 25.7352C104.354 25.5531 104.808 25.2718 105.192 24.9085C105.576 24.5451 105.881 24.1073 106.09 23.6218C106.299 23.1363 106.407 22.6133 106.407 22.0847C106.407 21.5562 106.299 21.0332 106.09 20.5477C105.881 20.0622 105.576 19.6244 105.192 19.261C104.808 18.8977 104.354 18.6164 103.858 18.4343C103.362 18.2523 102.834 18.1733 102.306 18.2022ZM102.354 24.2274H99.6998V19.9421H102.354C102.639 19.9362 102.922 19.9873 103.188 20.0923C103.453 20.1973 103.694 20.3542 103.898 20.5538C104.102 20.7533 104.264 20.9915 104.374 21.2544C104.485 21.5173 104.541 21.7996 104.541 22.0848C104.541 22.37 104.485 22.6523 104.374 22.9152C104.264 23.1781 104.102 23.4163 103.898 23.6158C103.694 23.8154 103.453 23.9722 103.188 24.0773C102.922 24.1823 102.639 24.2333 102.354 24.2274ZM113.886 22.4321C113.205 22.3924 112.527 22.5523 111.935 22.8923C111.344 23.2323 110.865 23.7375 110.556 24.346L112.213 25.0376C112.377 24.7356 112.626 24.488 112.929 24.3252C113.232 24.1624 113.575 24.0913 113.918 24.1208C114.391 24.0746 114.863 24.218 115.231 24.5195C115.599 24.8209 115.832 25.2559 115.88 25.7291V25.8578C115.281 25.5395 114.612 25.3738 113.934 25.3753C112.149 25.3753 110.331 26.3564 110.331 28.1899C110.349 28.5763 110.443 28.9553 110.61 29.3044C110.777 29.6535 111.012 29.9655 111.301 30.222C111.591 30.4786 111.929 30.6743 112.295 30.7976C112.662 30.921 113.05 30.9695 113.435 30.9401C113.905 30.9678 114.374 30.869 114.792 30.654C115.211 30.439 115.564 30.1158 115.816 29.7178H115.88V30.6828H117.681V25.89C117.681 23.6705 116.025 22.4321 113.886 22.4321ZM113.66 29.2835C113.049 29.2835 112.197 28.978 112.197 28.222C112.197 27.2571 113.258 26.8871 114.175 26.8871C114.771 26.8713 115.359 27.0157 115.88 27.3053C115.811 27.8476 115.549 28.3467 115.141 28.7103C114.733 29.074 114.207 29.2776 113.66 29.2835ZM124.243 22.7055L122.104 28.1255H122.04L119.82 22.7055H117.81L121.139 30.2807L119.241 34.4945H121.187L126.318 22.7055H124.243ZM107.436 30.7036H109.302V18.2022H107.436V30.7036Z" fill="white"/>
<path id="Vector_11" d="M10.9352 8.24057C10.6073 8.63264 10.4417 9.13527 10.4724 9.64547V31.7616C10.4416 32.2718 10.6072 32.7745 10.9352 33.1665L11.0092 33.2386L23.3982 20.8497V20.5574L11.0092 8.16797L10.9352 8.24057Z" fill="url(#paint0_linear_1505_4119)"/>
<path id="Vector_12" d="M27.5278 24.9818L23.3984 20.8504V20.5581L27.5288 16.4277L27.6219 16.4808L32.5147 19.2609C33.9123 20.0549 33.9123 21.3541 32.5147 22.1486L27.6219 24.9287L27.5278 24.9818Z" fill="url(#paint1_linear_1505_4119)"/>
<path id="Vector_13" d="M27.622 24.927L23.3985 20.7031L10.9355 33.166C11.2203 33.4172 11.5839 33.5608 11.9635 33.572C12.343 33.5832 12.7145 33.4613 13.0136 33.2274L27.622 24.927Z" fill="url(#paint2_linear_1505_4119)"/>
<path id="Vector_14" d="M27.622 16.4797L13.0136 8.17929C12.7145 7.94538 12.343 7.82348 11.9635 7.83469C11.5839 7.84591 11.2203 7.98953 10.9355 8.24069L23.3985 20.7037L27.622 16.4797Z" fill="url(#paint3_linear_1505_4119)"/>
<path id="Vector_15" opacity="0.2" d="M27.5289 24.834L13.0136 33.0813C12.726 33.3002 12.375 33.4197 12.0136 33.4216C11.6522 33.4235 11.2999 33.3078 11.01 33.092L10.9355 33.1665L11.0095 33.2386L11.01 33.2381C11.2999 33.4541 11.6521 33.5698 12.0136 33.5679C12.3751 33.566 12.7261 33.4464 13.0136 33.2274L27.622 24.927L27.5289 24.834Z" fill="black"/>
<path id="Vector_16" opacity="0.12" d="M10.9352 33.0221C10.6073 32.63 10.4417 32.1274 10.4724 31.6172V31.7633C10.4417 32.2735 10.6073 32.7761 10.9352 33.1682L11.0097 33.0937L10.9352 33.0221Z" fill="black"/>
<path id="Vector_17" opacity="0.12" d="M32.5152 22.0024L27.5293 24.8356L27.6224 24.9286L32.5152 22.1485C32.803 22.0236 33.0521 21.8238 33.2364 21.5699C33.4208 21.3161 33.5337 21.0174 33.5635 20.7051C33.5016 20.9879 33.3747 21.2525 33.1927 21.4777C33.0107 21.7029 32.7787 21.8825 32.5152 22.0024Z" fill="black"/>
<path id="Vector_18" opacity="0.25" d="M13.0136 8.32647L32.5148 19.4065C32.7785 19.5263 33.0105 19.706 33.1925 19.9313C33.3745 20.1566 33.5014 20.4213 33.5631 20.7043C33.5336 20.3918 33.4207 20.093 33.2364 19.839C33.052 19.5851 32.8028 19.3852 32.5148 19.2604L13.0136 8.18037C11.616 7.38627 10.4727 8.04587 10.4727 9.64667V9.79277C10.4727 8.19207 11.616 7.53247 13.0136 8.32647Z" fill="white"/>
</g>
<defs>
<linearGradient id="paint0_linear_1505_4119" x1="22.2995" y1="9.41228" x2="5.51713" y2="26.1947" gradientUnits="userSpaceOnUse">
<stop stop-color="#00A0FF"/>
<stop offset="0.00657" stop-color="#00A1FF"/>
<stop offset="0.2601" stop-color="#00BEFF"/>
<stop offset="0.5122" stop-color="#00D2FF"/>
<stop offset="0.7604" stop-color="#00DFFF"/>
<stop offset="1" stop-color="#00E3FF"/>
</linearGradient>
<linearGradient id="paint1_linear_1505_4119" x1="34.3344" y1="20.7048" x2="10.1375" y2="20.7048" gradientUnits="userSpaceOnUse">
<stop stop-color="#FFE000"/>
<stop offset="0.4087" stop-color="#FFBD00"/>
<stop offset="0.7754" stop-color="#FFA500"/>
<stop offset="1" stop-color="#FF9C00"/>
</linearGradient>
<linearGradient id="paint2_linear_1505_4119" x1="25.3271" y1="22.9982" x2="2.56882" y2="45.7565" gradientUnits="userSpaceOnUse">
<stop stop-color="#FF3A44"/>
<stop offset="1" stop-color="#C31162"/>
</linearGradient>
<linearGradient id="paint3_linear_1505_4119" x1="7.79748" y1="0.878875" x2="17.96" y2="11.0414" gradientUnits="userSpaceOnUse">
<stop stop-color="#32A071"/>
<stop offset="0.0685" stop-color="#2DA771"/>
<stop offset="0.4762" stop-color="#15CF74"/>
<stop offset="0.8009" stop-color="#06E775"/>
<stop offset="1" stop-color="#00F076"/>
</linearGradient>
<clipPath id="clip0_1505_4119">
<rect width="136" height="40" fill="white" transform="translate(0 0.703125)"/>
</clipPath>
</defs>
</svg>
